<?xml version="1.0" encoding="UTF-8"?>
<svg xmlns="http://www.w3.org/2000/svg" width="492" height="91" viewBox="0 0 492 91" fill="none">
  <path fill-rule="evenodd" clip-rule="evenodd" d="M8.4 40.2H55C55.6667 38.0666 56 35.7333 56 33.2C56 26.0666 53.2667 19.9333 47.8 14.8C42.2667 9.59999 35.6667 7 28 7C20.2667 7 13.6667 9.59999 8.2 14.8C2.73333 19.9333 0 26.0666 0 33.2C0 40.4666 2.73333 46.6667 8.2 51.8C13.6667 56.9333 20.2667 59.5 28 59.5C35.6 59.8 42 57.4 47 52.3L40 49.2C36.6 51.6 32.7 52.7 28 52.5C22.2667 52.5 17.8333 51.0666 14.7 48.2C11.5667 45.3333 9.46666 42.6666 8.4 40.2ZM42.8 19.7C46.9333 23.5 49 28 49 33.2H7C7 28 9.06666 23.5 13.2 19.7C17.3333 15.9 22.2667 14 28 14C33.7333 14 38.6667 15.9 42.8 19.7Z" fill="#6EBB4B"></path>
  <path d="M280.2 14.7C285.667 9.56665 292.267 7 300 7C306.333 7 311.9 8.73331 316.7 12.2L320 14.8895L322.9 18.3C326.3 22.6333 328 27.6 328 33.2V59.5H321L321.1 33.2C321.1 27.9333 319 23.4 314.8 19.6C310.667 15.8667 305.733 14 300 14C294.2 14 289.233 15.8667 285.1 19.6C281.033 23.4 279 28 279 33.4V59.5H272V33.4C272 26.0667 274.733 19.8333 280.2 14.7Z" fill="#292940"></path>
  <path d="M280.2 14.7C285.667 9.56665 292.267 7 300 7C306.333 7 311.9 8.73331 316.7 12.2L320 14.8895L322.9 18.3C326.3 22.6333 328 27.6 328 33.2V59.5H321L321.1 33.2C321.1 27.9333 319 23.4 314.8 19.6C310.667 15.8667 305.733 14 300 14C294.2 14 289.233 15.8667 285.1 19.6C281.033 23.4 279 28 279 33.4V59.5H272V33.4C272 26.0667 274.733 19.8333 280.2 14.7Z" fill="#292940"></path>
  <path d="M319.8 14.7C314.333 9.56665 307.733 7 300 7C293.667 7 288.1 8.73331 283.3 12.2L280 14.8895L277.1 18.3C273.7 22.6333 272 27.6 272 33.2V59.5H279L278.9 33.2C278.9 27.9333 281 23.4 285.2 19.6C289.333 15.8667 294.267 14 300 14C305.8 14 310.767 15.8667 314.9 19.6C318.967 23.4 321 28 321 33.4V59.5H328V33.4C328 26.0667 325.267 19.8333 319.8 14.7Z" fill="#292940"></path>
  <path d="M319.8 14.7C314.333 9.56665 307.733 7 300 7C293.667 7 288.1 8.73331 283.3 12.2L280 14.8895L277.1 18.3C273.7 22.6333 272 27.6 272 33.2V59.5H279L278.9 33.2C278.9 27.9333 281 23.4 285.2 19.6C289.333 15.8667 294.267 14 300 14C305.8 14 310.767 15.8667 314.9 19.6C318.967 23.4 321 28 321 33.4V59.5H328V33.4C328 26.0667 325.267 19.8333 319.8 14.7Z" fill="#292940"></path>
  <path d="M221.2 51.8C226.667 56.9333 233.267 59.5 241 59.5C247.333 59.5 252.9 57.7667 257.7 54.3L261 51.6105L263.9 48.2C267.3 43.8667 269 38.9 269 33.3V7H262L262.1 33.3C262.1 38.5667 260 43.1 255.8 46.9C251.667 50.6333 246.733 52.5 241 52.5C235.2 52.5 230.233 50.6333 226.1 46.9C222.033 43.1 220 38.5 220 33.1V7H213V33.1C213 40.4333 215.733 46.6667 221.2 51.8Z" fill="#292940"></path>
  <path d="M221.2 51.8C226.667 56.9333 233.267 59.5 241 59.5C247.333 59.5 252.9 57.7667 257.7 54.3L261 51.6105L263.9 48.2C267.3 43.8667 269 38.9 269 33.3V7H262L262.1 33.3C262.1 38.5667 260 43.1 255.8 46.9C251.667 50.6333 246.733 52.5 241 52.5C235.2 52.5 230.233 50.6333 226.1 46.9C222.033 43.1 220 38.5 220 33.1V7H213V33.1C213 40.4333 215.733 46.6667 221.2 51.8Z" fill="#292940"></path>
  <path d="M260.8 51.8C255.333 56.9333 248.733 59.5 241 59.5C234.667 59.5 229.1 57.7667 224.3 54.3L221 51.6105L218.1 48.2C214.7 43.8667 213 38.9 213 33.3V7H220L219.9 33.3C219.9 38.5667 222 43.1 226.2 46.9C230.333 50.6333 235.267 52.5 241 52.5C246.8 52.5 251.767 50.6333 255.9 46.9C259.967 43.1 262 38.5 262 33.1V7H269V33.1C269 40.4333 266.267 46.6667 260.8 51.8Z" fill="#292940"></path>
  <path d="M260.8 51.8C255.333 56.9333 248.733 59.5 241 59.5C234.667 59.5 229.1 57.7667 224.3 54.3L221 51.6105L218.1 48.2C214.7 43.8667 213 38.9 213 33.3V7H220L219.9 33.3C219.9 38.5667 222 43.1 226.2 46.9C230.333 50.6333 235.267 52.5 241 52.5C246.8 52.5 251.767 50.6333 255.9 46.9C259.967 43.1 262 38.5 262 33.1V7H269V33.1C269 40.4333 266.267 46.6667 260.8 51.8Z" fill="#292940"></path>
  <path d="M383.2 14.7C388.667 9.56665 395.267 7 403 7C409.333 7 414.9 8.73331 419.7 12.2L423 14.8895L425.9 18.3C429.3 22.6333 431 27.6 431 33.2V59.5H424L424.1 33.2C424.1 27.9333 422 23.4 417.8 19.6C413.667 15.8667 408.733 14 403 14C397.2 14 392.233 15.8667 388.1 19.6C384.033 23.4 382 28 382 33.4V59.5H375V33.4C375 26.0667 377.733 19.8333 383.2 14.7Z" fill="#292940"></path>
  <path d="M383.2 14.7C388.667 9.56665 395.267 7 403 7C409.333 7 414.9 8.73331 419.7 12.2L423 14.8895L425.9 18.3C429.3 22.6333 431 27.6 431 33.2V59.5H424L424.1 33.2C424.1 27.9333 422 23.4 417.8 19.6C413.667 15.8667 408.733 14 403 14C397.2 14 392.233 15.8667 388.1 19.6C384.033 23.4 382 28 382 33.4V59.5H375V33.4C375 26.0667 377.733 19.8333 383.2 14.7Z" fill="#292940"></path>
  <path d="M422.8 14.7C417.333 9.56665 410.733 7 403 7C396.667 7 391.1 8.73331 386.3 12.2L383 14.8895L380.1 18.3C376.7 22.6333 375 27.6 375 33.2V59.5H382L381.9 33.2C381.9 27.9333 384 23.4 388.2 19.6C392.333 15.8667 397.267 14 403 14C408.8 14 413.767 15.8667 417.9 19.6C421.967 23.4 424 28 424 33.4V59.5H431V33.4C431 26.0667 428.267 19.8333 422.8 14.7Z" fill="#292940"></path>
  <path d="M422.8 14.7C417.333 9.56665 410.733 7 403 7C396.667 7 391.1 8.73331 386.3 12.2L383 14.8895L380.1 18.3C376.7 22.6333 375 27.6 375 33.2V59.5H382L381.9 33.2C381.9 27.9333 384 23.4 388.2 19.6C392.333 15.8667 397.267 14 403 14C408.8 14 413.767 15.8667 417.9 19.6C421.967 23.4 424 28 424 33.4V59.5H431V33.4C431 26.0667 428.267 19.8333 422.8 14.7Z" fill="#292940"></path>
  <path d="M138.1 48.3C135.1 51.1 130.733 52.5 125 52.5C119.267 52.5 114.333 50.6333 110.2 46.9C106.067 43.1 104 38.5333 104 33.2C104 28 106.067 23.5 110.2 19.7C114.333 15.9 119.267 14 125 14C130.733 14 135.133 15.4333 138.2 18.3C141.333 21.1 143.4 23.6 144.4 25.8L151.2 23.7C149.8 20.4333 147 16.8333 142.8 12.9C138.6 8.96666 132.667 7 125 7C117.267 7 110.667 9.59999 105.2 14.8C99.7333 19.9333 97 26.0666 97 33.2C97 40.4666 99.7333 46.6667 105.2 51.8C110.667 56.9333 117.267 59.5 125 59.5C132.667 59.5 138.567 57.5666 142.7 53.7C146.833 49.8333 149.567 46.3667 150.9 43.3L144.3 40.9C143.233 43.1 141.167 45.5667 138.1 48.3Z" fill="#292940"></path>
  <path d="M338.1 33.1001C338.1 38.5 340.167 43.1001 344.3 46.8999C348.433 50.6333 353.367 52.5 359.1 52.5V59.5C351.367 59.5 344.767 56.9333 339.3 51.8C333.833 46.6667 331.1 40.4333 331.1 33.1001V15.7002H327.6V8.7002H331.1V0H338.1V8.69995H355.6V15.7H338.1V33.1001Z" fill="#292940"></path>
  <path fill-rule="evenodd" clip-rule="evenodd" d="M210.1 33.2C210.1 40.4666 207.367 46.6667 201.9 51.8C196.367 56.9333 189.767 59.5 182.1 59.5C174.433 59.5 167.867 56.9333 162.4 51.8C156.933 46.6667 154.167 40.4666 154.1 33.2C154.167 26.0666 156.933 19.9333 162.4 14.8C167.867 9.59999 174.433 7 182.1 7C189.767 7 196.367 9.59999 201.9 14.8C207.367 19.9333 210.1 26.0666 210.1 33.2ZM203.1 33.2C203.167 28 201.1 23.5 196.9 19.7C192.767 15.9 187.833 14 182.1 14C176.367 14 171.433 15.9 167.3 19.7C163.167 23.5 161.1 28 161.1 33.2C161.1 38.5333 163.167 43.1 167.3 46.9C171.433 50.6333 176.367 52.5 182.1 52.5C187.833 52.5 192.767 50.6333 196.9 46.9C201.1 43.1 203.167 38.5333 203.1 33.2Z" fill="#292940"></path>
  <path fill-rule="evenodd" clip-rule="evenodd" d="M464 83.3H463.8V90.3H464C471.733 90.3 478.333 87.7333 483.8 82.6C489.267 77.4 492 71.2333 492 64.1V33.3C492 33.2484 492 33.1969 492 33.1454C492 33.097 492 33.0485 492 33C492 22.0658 484.731 12.7081 474.436 8.86594C471.208 7.62198 467.729 7 464 7C459.084 7 454.626 8.05075 450.625 10.1523C441.913 14.5593 436 23.1385 436 33C436 33.0485 436 33.097 436 33.1454C436 33.1969 436 33.2484 436 33.3C436 40.5 438.733 46.6667 444.2 51.8C449.667 56.9333 456.267 59.5 464 59.5C471.667 59.5 478.233 56.9333 483.7 51.8C484.167 51.4 484.567 51 484.9 50.6V65.7C484.5 70.2333 482.367 74.3 478.5 77.9C474.567 81.5 469.733 83.3 464 83.3ZM478.7 19.7C482.9 23.5 485 28.0333 485 33.3C485 38.6333 482.9 43.1667 478.7 46.9C474.567 50.6333 469.667 52.5 464 52.5C458.2 52.5 453.267 50.6333 449.2 46.9C445.067 43.1667 443 38.6333 443 33.3C443 28.0333 445.067 23.5 449.2 19.7C453.267 15.9 458.2 14 464 14C469.667 14 474.567 15.9 478.7 19.7Z" fill="#6EBB4B"></path>
  <path d="M363.7 0V7H370.7V0H363.7ZM363.7 14V59.5H370.7V14H363.7Z" fill="#292940"></path>
  <path d="M59.5 33.2V40.2H94.5V33.2H59.5Z" fill="#292940"></path>
</svg>
